<svg id="visual" viewBox="0 0 1100 850" width="1100" height="850" xmlns="http://www.w3.org/2000/svg" xmlns:xlink="http://www.w3.org/1999/xlink" version="1.1"><rect x="0" y="0" width="1100" height="850" fill="#001220"></rect><defs><linearGradient id="grad1_0" x1="22.7%" y1="0%" x2="100%" y2="100%"><stop offset="24.11764705882353%" stop-color="#001220" stop-opacity="1"></stop><stop offset="75.88235294117646%" stop-color="#001220" stop-opacity="1"></stop></linearGradient></defs><defs><linearGradient id="grad2_0" x1="0%" y1="0%" x2="77.3%" y2="100%"><stop offset="24.11764705882353%" stop-color="#001220" stop-opacity="1"></stop><stop offset="75.88235294117646%" stop-color="#001220" stop-opacity="1"></stop></linearGradient></defs><g transform="translate(1100, 0)"><path d="M0 417C-83.3 412.1 -166.6 407.2 -208.5 361.2C-250.4 315.2 -251 228 -278.9 161C-306.7 94 -361.9 47 -417 0L0 0Z" fill="#FBAE3C"></path></g><g transform="translate(0, 850)"><path d="M0 -417C31.5 -335.1 63 -253.1 132 -228.6C201 -204.1 307.4 -237.1 361.2 -208.5C414.9 -180 416 -90 417 0L0 0Z" fill="#FBAE3C"></path></g></svg>